<?xml version="1.0" encoding="utf-8"?>
<!-- Generator: Adobe Illustrator 19.0.0, SVG Export Plug-In . SVG Version: 6.00 Build 0)  -->
<svg version="1.1" id="Layer_1" xmlns="http://www.w3.org/2000/svg" xmlns:xlink="http://www.w3.org/1999/xlink" x="0px" y="0px"
	 viewBox="0 0 19 36.9" style="enable-background:new 0 0 19 36.9;" xml:space="preserve">
<style type="text/css">
	.st0{fill:#FFFFFF;}
</style>
<g id="XMLID_2_">
	<path id="XMLID_3_" class="st0" d="M11.2,36.2H3.9c-0.5,0-0.6-0.4-0.6-0.8V20.5H0.6c-0.5,0-0.6-0.4-0.6-0.8v-6.1
		c0-0.5,0.1-0.8,0.6-0.8h3.3c0-4.9,0.9-8.2,2.6-10C8.1,1.2,9.9,1,11.6,1h5.1c0.5,0,1.1,0.4,1.1,0.8v6.7c0,0.5-0.6,0.8-1.1,0.8h-4.5
		v3.4h4.5c0.5,0,1.1,0.4,1.1,0.8v6.1c0,0.5-0.6,0.8-1.1,0.8h-4.5v14.8C12.3,35.8,11.7,36.2,11.2,36.2L11.2,36.2z M5,34.5h5.6V19.7
		c0-0.5,0.1-0.8,0.6-0.8h5v-4.5h-5c-0.5,0-0.6-0.4-0.6-0.8v-5c0-0.5,0.1-0.8,0.6-0.8h5v-5h-4.5c-1.3,0-2.8,0.1-3.9,1.3
		c-1.5,1.6-2.2,4.8-2.1,9.6c0,0.2-0.1,0.4-0.2,0.6c-0.2,0.2-0.4,0.3-0.6,0.3H1.7v4.5h2.3c0.5,0,1.1,0.4,1.1,0.8V34.5z M5,34.5"/>
</g>
<g id="XMLID_124_">
	<path id="XMLID_125_" class="st0" d="M11.5,36.2H4.2c-0.5,0-0.6-0.4-0.6-0.8V20.5H0.9c-0.5,0-0.6-0.4-0.6-0.8v-6.1
		c0-0.5,0.1-0.8,0.6-0.8h3.3c0-4.9,0.9-8.2,2.6-10C8.4,1.2,10.2,1,12,1h5.1c0.5,0,1.1,0.4,1.1,0.8v6.7c0,0.5-0.6,0.8-1.1,0.8h-4.5
		v3.4h4.5c0.5,0,1.1,0.4,1.1,0.8v6.1c0,0.5-0.6,0.8-1.1,0.8h-4.5v14.8C12.6,35.8,12,36.2,11.5,36.2L11.5,36.2z M5.3,34.5h5.6V19.7
		c0-0.5,0.1-0.8,0.6-0.8h5v-4.5h-5c-0.5,0-0.6-0.4-0.6-0.8v-5c0-0.5,0.1-0.8,0.6-0.8h5v-5H12c-1.3,0-2.8,0.1-3.9,1.3
		c-1.5,1.6-2.2,4.8-2.1,9.6c0,0.2-0.1,0.4-0.2,0.6c-0.2,0.2-0.4,0.3-0.6,0.3H2v4.5h2.3c0.5,0,1.1,0.4,1.1,0.8V34.5z M5.3,34.5"/>
</g>
</svg>
