<?xml version="1.0" encoding="utf-8"?>
<!-- Generator: Adobe Illustrator 19.0.0, SVG Export Plug-In . SVG Version: 6.00 Build 0)  -->
<svg version="1.1" id="Layer_1" xmlns="http://www.w3.org/2000/svg" xmlns:xlink="http://www.w3.org/1999/xlink" x="0px" y="0px"
	 viewBox="0 0 36.1 34.4" style="enable-background:new 0 0 36.1 34.4;" xml:space="preserve">
<style type="text/css">
	.st0{fill:#FFFFFF;}
</style>
<g id="XMLID_169_">
	<path id="XMLID_202_" class="st0" d="M25.5,0.3H10.8c-5.3,0-9.6,4.3-9.6,9.6v14.7c0,5.3,4.3,9.6,9.6,9.6h14.7
		c5.3,0,9.6-4.3,9.6-9.6V9.8C35.1,4.5,30.8,0.3,25.5,0.3z M32,24.8c0,3.4-2.8,6.2-6.2,6.2H10.5c-3.4,0-6.2-2.8-6.2-6.2V9.5
		c0-3.4,2.8-6.2,6.2-6.2h15.3c3.4,0,6.2,2.8,6.2,6.2V24.8z"/>
	<path id="XMLID_171_" class="st0" d="M18.2,8.5c-4.8,0-8.7,3.9-8.7,8.7c0,4.8,3.9,8.7,8.7,8.7c4.8,0,8.7-3.9,8.7-8.7
		C26.9,12.4,23,8.5,18.2,8.5z M18.2,22.9c-3.1,0-5.7-2.5-5.7-5.7c0-3.1,2.5-5.7,5.7-5.7c3.1,0,5.7,2.5,5.7,5.7
		C23.9,20.3,21.3,22.9,18.2,22.9z"/>
	<circle id="XMLID_170_" class="st0" cx="27.2" cy="8.2" r="1.9"/>
</g>
</svg>
