<?xml version="1.0" encoding="utf-8"?>
<!-- Generator: Adobe Illustrator 19.0.0, SVG Export Plug-In . SVG Version: 6.00 Build 0)  -->
<svg version="1.1" id="Layer_1" xmlns="http://www.w3.org/2000/svg" xmlns:xlink="http://www.w3.org/1999/xlink" x="0px" y="0px"
	 viewBox="0 0 40.9 34" style="enable-background:new 0 0 40.9 34;" xml:space="preserve">
<style type="text/css">
	.st0{fill-rule:evenodd;clip-rule:evenodd;fill:#FFFFFF;}
</style>
<path id="XMLID_168_" class="st0" d="M39.3,5.3c-0.3-0.2-0.7-0.2-1,0c-0.2,0.2-0.5,0.3-0.9,0.4c1.2-1.5,1.2-2.4,1.2-2.7
	c0-0.3-0.2-0.6-0.5-0.7c-0.3-0.1-0.6-0.1-0.9,0.1c-1.6,1.1-3.2,1.4-4.1,1.4c-1.5-1.4-3.5-2.2-5.6-2.2c-4.5,0-8.2,3.7-8.2,8.2
	c0,0.3,0,0.7,0.1,1C11.8,10.7,5.7,3.5,5.6,3.5C5.5,3.3,5.2,3.1,4.9,3.2c-0.3,0-0.5,0.2-0.7,0.4C2.3,6.9,3.1,10,4.4,12.2
	c-0.2-0.1-0.5-0.1-0.8,0c-0.3,0.1-0.5,0.4-0.5,0.8c-0.1,3.4,1.5,5.5,3.1,6.7c-0.1,0-0.2,0.1-0.3,0.2c-0.2,0.2-0.3,0.5-0.2,0.8
	c1.1,3.6,3.7,4.9,5.5,5.4c-2.1,1.5-4.7,1.8-6.6,1.8c-1.3,0-2.1-0.1-2.1-0.1c-0.4-0.1-0.8,0.1-0.9,0.5c-0.2,0.4,0,0.8,0.3,1
	c3.9,3,8.7,3.6,12,3.6c2.6,0,4.4-0.4,4.5-0.4c16.9-4,17.6-19.1,17.6-21.9c3.2-2.9,3.7-4.1,3.8-4.3C39.8,5.9,39.6,5.5,39.3,5.3
	L39.3,5.3z M34.4,9.6c-0.2,0.2-0.3,0.4-0.3,0.7c0,0.2,0.9,16.5-16.2,20.5c0,0-1.7,0.4-4.1,0.4c-2.2,0-5.2-0.3-8.1-1.6
	c2.6-0.2,5.8-1,8.1-3.5c0.2-0.3,0.3-0.6,0.1-0.9c-0.1-0.3-0.5-0.5-0.8-0.5c-0.2,0-3.6,0-5.3-3.2c0.8,0,1.5-0.1,2-0.3
	c0.3-0.2,0.5-0.5,0.5-0.9c0-0.4-0.3-0.7-0.7-0.8c-0.2,0-4.1-0.9-4.8-5.1c0.6,0.2,1.4,0.4,2.1,0.3c0.3-0.1,0.6-0.3,0.7-0.6
	c0.1-0.3,0-0.7-0.3-0.9c-0.2-0.1-3.9-3.4-2.3-7.7c2.2,2.2,8.1,7.4,15.3,7c0.3,0,0.5-0.1,0.6-0.4c0.2-0.2,0.2-0.5,0.1-0.7
	c-0.1-0.5-0.2-1.1-0.2-1.6c0-3.6,2.9-6.5,6.5-6.5c1.7,0,3.4,0.7,4.6,1.9c0.2,0.2,0.4,0.3,0.6,0.3l0.1,0c0.6,0,1.6-0.1,2.8-0.4
	c-0.4,0.4-0.8,0.8-1.5,1.3c-0.3,0.2-0.4,0.6-0.3,1C34.1,7.8,34.4,8,34.8,8c0.1,0,0.8-0.1,1.5-0.2C35.8,8.3,35.2,8.9,34.4,9.6
	L34.4,9.6z M34.4,9.6"/>
</svg>
